<?xml version="1.0" encoding="UTF-8"?>
<svg id="Layer_2" data-name="Layer 2" xmlns="http://www.w3.org/2000/svg" viewBox="0 0 250 250">
  <defs>
    <style>
      .cls-1 {
        fill: #595959;
      }
    </style>
  </defs>
  <g id="Layer_1-2" data-name="Layer 1">
    <path class="cls-1" d="M125,0C55.96,0,0,55.96,0,125s55.96,125,125,125,125-55.96,125-125S194.04,0,125,0ZM157.78,174.84v1.02c-.14.06-.27.12-.41.18.14-.05.27-.11.41-.17v40.38h-54.08v-41.41c0-.77-.42-1.48-1.1-1.84-1.82-1-3.52-2.21-5.05-3.62-.1-.09-.2-.16-.31-.23l-37.61-37.61c-1.2-1.21-1.87-2.81-1.87-4.51s.67-3.3,1.87-4.51c6.63-6.63,17.42-6.63,24.06,0l1.96,1.96h0s15.04,15.06,15.04,15.06c.62.62,1.55.79,2.34.44,7.47-3.33,16.33-1.21,21.53,5.14,5.4,6.58,5.46,16.17.14,22.81-.7.87-.59,2.14.25,2.87.02.03.05.06.08.08.9.72,2.22.58,2.95-.33,1.08-1.35,1.98-2.79,2.7-4.31,3.65-7.66,2.68-17.02-2.87-23.79-6.09-7.42-16.24-10.14-25.13-6.86l-13.45-13.46V50.01c0-4.96,4.03-8.99,8.99-8.99s9,4.03,9,8.99v54.11c0,1.16.94,2.1,2.1,2.1h1.47c1.16,0,2.1-.94,2.1-2.1v-61.38c0-4.96,4.04-8.99,9-8.99s8.99,4.03,8.99,8.99v61.38c0,1.16.94,2.1,2.1,2.1h1.48c1.16,0,2.1-.94,2.1-2.1v-50.7c0-4.96,4.04-8.99,9-8.99s8.99,4.03,8.99,8.99v50.7c0,1.16.94,2.1,2.1,2.1h1.06c1.16,0,2.1-.94,2.1-2.1v-34.24c0-3.43,2.78-6.21,6.21-6.21s6.21,2.78,6.21,6.21v80.61c0,9.38-5.13,18-13.37,22.51-.67.36-1.09,1.07-1.09,1.84Z"/>
  </g>
</svg>