<?xml version="1.0" encoding="UTF-8"?>
<svg id="Layer_2" data-name="Layer 2" xmlns="http://www.w3.org/2000/svg" viewBox="0 0 250 250">
  <defs>
    <style>
      .cls-1 {
        fill: #595959;
      }
    </style>
  </defs>
  <g id="Layer_1-2" data-name="Layer 1">
    <path class="cls-1" d="M125,0C55.96,0,0,55.96,0,125s55.96,125,125,125,125-55.96,125-125S194.04,0,125,0ZM160.02,172.8c-.67.36-1.09,1.07-1.09,1.84v41.38h-54.08v-41.38c0-.42-.13-.83-.36-1.17-.18-.28-.43-.51-.73-.67-4.22-2.3-7.7-5.74-10.07-9.93-.03-.06-.07-.13-.12-.19l-12.63-17.64c-4.13-5.57-5.4-12.87-3.4-19.52l3.52-11.66c.97-3.22,3.87-5.38,7.23-5.38h39.67c3.51,0,6.37,2.86,6.37,6.38,0,9.38-7.63,17.01-17.01,17.01h-26.08c-1.16,0-2.1.94-2.1,2.1s.94,2.1,2.1,2.1h9.02l.75,1.57.44.91c.49,1.02,1.71,1.47,2.75,1,7.45-3.31,16.02-1.35,21.31,4.89,5.76,6.78,5.69,16.95-.14,23.66-.73.83-.68,2.08.1,2.85.03.04.07.08.11.11.4.35.89.51,1.38.51.58,0,1.17-.24,1.58-.72,1.35-1.55,2.45-3.25,3.29-5.05,3.67-7.77,2.64-17.3-3.11-24.08-.58-.68-1.2-1.33-1.84-1.92-1.8-1.69-3.83-3.04-6-4.03,6.85-1.17,12.59-5.63,15.53-11.69,0,0,.01,0,.01,0,.66-1.37,1.18-2.82,1.53-4.33.37-1.53.56-3.13.57-4.78,2.1,1.7,4.7,2.77,7.56,2.9.22.01.43.02.65.02,3.41,0,6.62-1.28,9.1-3.65.76-.73,1.42-1.55,1.98-2.41.3.63.65,1.23,1.06,1.78,1.76,2.42,4.49,4.06,7.62,4.26.24.01.47.02.7.02,2.26,0,4.41-.72,6.2-2.06v34.47c0,9.38-5.12,18.01-13.37,22.51ZM96.12,43.69c1.95,1.4,3.24,3.48,3.63,5.85l8.8,53.77c.04.26.06.51.08.77.01.07.02.14.04.2h-18.28v-.36c0-.12-.01-.23-.03-.34l-8.36-51.14c-.39-2.37.17-4.75,1.57-6.7,1.4-1.95,3.48-3.24,5.85-3.63,2.37-.38,4.75.18,6.7,1.58ZM124.89,33.99c4.95.17,8.85,4.34,8.68,9.29l-2.06,60.57c-.02.42.1.83.32,1.18-1.2-.48-2.51-.75-3.87-.75h-14.5c.02-.09.04-.19.04-.29l2.09-61.32c.17-4.95,4.35-8.86,9.3-8.68ZM155.71,104.68c0,2.49-.99,4.8-2.78,6.51-1.8,1.72-4.15,2.6-6.65,2.48-4.72-.22-8.56-4.4-8.56-9.3v-16.34c0-4.95,4.04-8.99,9-8.99s8.99,4.04,8.99,8.99v16.65ZM167.18,85.05c3.42,0,6.21,2.78,6.21,6.21v16.21c0,1.73-.7,3.34-1.96,4.53-1.27,1.19-2.92,1.78-4.67,1.66-3.24-.21-5.79-3.05-5.79-6.48v-15.92c0-3.43,2.79-6.21,6.21-6.21Z"/>
  </g>
</svg>