<?xml version="1.0" encoding="UTF-8"?>
<svg id="Layer_2" data-name="Layer 2" xmlns="http://www.w3.org/2000/svg" viewBox="0 0 250 250">
  <defs>
    <style>
      .cls-1 {
        fill: #595959;
      }
    </style>
  </defs>
  <g id="Layer_1-2" data-name="Layer 1">
    <path class="cls-1" d="M125,0C55.96,0,0,55.96,0,125s55.96,125,125,125,125-55.96,125-125S194.04,0,125,0ZM166.97,163.99c-.8.44-1.31,1.28-1.31,2.2v50.84h-64.72v-50.84c0-.37-.08-.73-.24-1.06-.22-.48-.59-.88-1.07-1.14-3.6-1.97-6.73-4.6-9.3-7.82-.02-.03-.04-.05-.07-.08h0s-.05-.07-.07-.1c-.58-.73-1.12-1.5-1.63-2.28-.02-.03-.04-.06-.07-.09l-16.17-22.59c-4.95-6.67-6.47-15.41-4.07-23.36l4.21-13.96c1.16-3.85,4.64-6.43,8.65-6.43h47.48c4.21,0,7.63,3.42,7.63,7.62,0,11.23-9.14,20.36-20.36,20.36h-31.21c-1.39,0-2.51,1.13-2.51,2.52s1.12,2.51,2.51,2.51h.32l11.38,1.88.52,1.09c.59,1.22,2.04,1.76,3.28,1.2,8.92-3.97,19.18-1.61,25.52,5.86,6.88,8.1,6.81,20.27-.17,28.31-.87.99-.81,2.49.12,3.41.04.05.08.09.13.13.47.42,1.06.62,1.64.62.71,0,1.41-.29,1.9-.87,1.62-1.86,2.93-3.9,3.95-6.05,4.38-9.3,3.15-20.7-3.74-28.81-.68-.8-1.4-1.56-2.16-2.27-2.17-2.04-4.61-3.67-7.21-4.86,8.19-1.39,15.05-6.71,18.57-13.95h.01c.83-1.72,1.47-3.53,1.9-5.42.42-1.82.64-3.72.64-5.66,0-.05-.01-.09-.01-.14,2.5,2.03,5.62,3.31,9.05,3.48.26.01.51.01.77.01,4.08,0,7.92-1.53,10.89-4.36.92-.88,1.7-1.85,2.37-2.89,0,.01.01.01.01.02.35.75.78,1.46,1.26,2.12,2.11,2.89,5.38,4.85,9.13,5.09.28.02.55.02.83.02,2.71,0,5.28-.86,7.42-2.46v41.26c0,11.23-6.13,21.55-16,26.94ZM94.39,49.84c5.94,0,10.77,4.83,10.77,10.77v21.64h-21.52c0-.06-.01-.11-.01-.16v-21.48c0-5.94,4.83-10.77,10.76-10.77ZM122.72,46.97c5.94,0,10.77,4.83,10.77,10.76v24.73c0,.26-.02.51-.04.76-1.49-.62-3.14-.97-4.86-.97h-16.63v-24.52c0-5.93,4.83-10.76,10.76-10.76ZM151.05,51.77c5.94,0,10.77,4.83,10.77,10.76v19.93c0,2.97-1.19,5.74-3.34,7.79-2.15,2.05-4.98,3.11-7.95,2.96-5.65-.26-10.25-5.25-10.25-11.12v-19.56c0-5.93,4.83-10.76,10.77-10.76ZM175.54,58.96c4.1,0,7.43,3.33,7.43,7.43v19.4c0,2.08-.83,4.01-2.35,5.43-1.51,1.42-3.49,2.13-5.58,1.99-3.89-.25-6.93-3.66-6.93-7.76v-19.06c0-4.1,3.33-7.43,7.43-7.43Z"/>
  </g>
</svg>